<svg xmlns="http://www.w3.org/2000/svg" width="200" height="200" version="1.1">
<defs>
    <linearGradient id="grad1" x1="100%" y1="100%" x2="0%" y2="0%">
      <stop offset="0%" style="stop-color:rgb(50,50,50));stop-opacity:1" />
      <stop offset="100%" style="stop-color:rgb(50,250,50);stop-opacity:1" />
    </linearGradient>

  <linearGradient id="grad2" x1="100%" y1="100%" x2="0%" y2="0%">
      <stop offset="0%" style="stop-color:rgb(50,50,50);stop-opacity:1" />
      <stop offset="100%" style="stop-color:rgb(50,50,250);stop-opacity:1" />
    </linearGradient>

       <clipPath id="cut-off-bottom">
      <rect x="0" y="0" width="30" height="30" />
      <rect x="40" y="0" width="30" height="30" />
      <rect x="80" y="0" width="30" height="30" />
     
      <rect x="0" y="40" width="30" height="30" />
      <rect x="40" y="40" width="30" height="30" />
      <rect x="80" y="40" width="30" height="30" />

      <rect x="0" y="80" width="30" height="30" />
      <rect x="40" y="80" width="30" height="30" />
      <rect x="80" y="80" width="30" height="30" />

      </clipPath>
  </defs>

 <rect x="0" y="0" width="200" height="200"  fill="rgb(0, 0, 0)" fill-opacity="0"/>
 <g transform="translate(100,10) rotate(45) ">

<rect x="0" y="0" width="150" height="150" fill="rgb(50, 50, 250)" fill-opacity=".4" transform="translate(20, 20)" clip-path="url(#cut-off-bottom)"/>
<rect x="0" y="0" width="150" height="150"  fill="rgb(50,50,250)" fill-opacity=".8" clip-path="url(#cut-off-bottom)"/>
</g>

</svg>